#!OML:ASF H:\LiuWeirdWalks\Patient Classification 1\Patient 1\Session 1\male.ASF
:FULLY-SPECIFIED
:DEGREES
918
root 1.11265 18.2449 16.6158 4.84027 7.59053 1.31901
lowerback 2.64897 -1.41273 -0.167804
upperback -1.18055 -1.80308 3.44235
thorax -2.58375 -0.866419 3.7287
lowerneck -16.7105 1.87881 4.75396
upperneck 20.9591 3.22217 -7.85194
head 9.59257 1.00068 -3.10679
rclavicle -2.34566e-014 4.77083e-015
rhumerus -36.5086 -6.99919 -75.3408
rradius 31.3651
rwrist -8.2488
rhand -17.3616 -2.69299
rfingers 7.12502
rthumb 8.88638 -32.4859
lclavicle -2.34566e-014 4.77083e-015
lhumerus -42.0471 -0.779981 89.161
lradius 35.4374
lwrist 9.41834
lhand -11.3703 -2.06296
lfingers 7.12502
lthumb 14.6638 27.3985
rfemur -22.3763 -8.08045 19.6509
rtibia 25.4452
rfoot -10.4741 -9.32364
rtoes -13.3551
lfemur 4.55701 -2.97498 -18.4176
ltibia 35.3092
lfoot 10.8898 0.044119
ltoes 21.6419
919
root 1.09433 18.2536 16.7041 4.78701 7.47631 1.19935
lowerback 2.71406 -1.41229 -0.0174589
upperback -1.06202 -1.79704 3.51358
thorax -2.50098 -0.86708 3.71687
lowerneck -17.1136 1.90919 4.74706
upperneck 20.9703 3.25764 -7.86913
head 9.6751 1.00592 -3.10787
rclavicle 2.78299e-015 -2.8625e-014
rhumerus -36.0986 -7.1464 -75.2768
rradius 31.4277
rwrist -8.29658
rhand -17.4431 -2.69036
rfingers 7.12502
rthumb 8.80772 -32.4866
lclavicle 2.78299e-015 -2.8625e-014
lhumerus -41.6068 -1.03411 89.3796
lradius 35.6074
lwrist 9.54362
lhand -11.432 -2.08914
lfingers 7.12502
lthumb 14.6043 27.3767
rfemur -21.9841 -8.04281 19.8699
rtibia 25.3394
rfoot -10.5994 -9.24616
rtoes -13.1874
lfemur 3.88528 -2.84226 -18.0781
ltibia 36.6871
lfoot 11.7442 -0.575156
ltoes 22.0597
920
root 1.0764 18.2625 16.7908 4.72649 7.3354 1.07835
lowerback 2.80617 -1.52817 0.0136372
upperback -0.903632 -1.95144 3.59907
thorax -2.37788 -0.946693 3.79435
lowerneck -17.6365 2.10117 4.99698
upperneck 21.0058 3.47291 -8.00525
head 9.80871 1.09873 -3.17088
rclavicle 4.77083e-015 -1.59028e-015
rhumerus -35.4895 -7.04301 -75.4447
rradius 31.4293
rwrist -8.31811
rhand -17.5268 -2.6911
rfingers 7.12502
rthumb 8.72702 -32.4907
lclavicle 4.77083e-015 -1.59028e-015
lhumerus -41.1249 -0.967304 89.3671
lradius 35.8208
lwrist 9.69078
lhand -11.4879 -2.09754
lfingers 7.12502
lthumb 14.5505 27.3722
rfemur -21.5806 -7.94433 20.0848
rtibia 25.2091
rfoot -10.6908 -9.21066
rtoes -12.9713
lfemur 3.19221 -2.69461 -17.7477
ltibia 38.0762
lfoot 12.6316 -1.19173
ltoes 22.4642
921
root 1.05859 18.2714 16.8751 4.66631 7.16731 0.940196
lowerback 2.92247 -1.88084 -0.148201
upperback -0.768523 -2.42856 3.69889
thorax -2.2621 -1.18498 4.01136
lowerneck -17.9332 2.59392 5.81157
upperneck 20.9664 4.01298 -8.40615
head 9.91739 1.36229 -3.37648
rclavicle -4.55217e-014 -1.90833e-014
rhumerus -34.7433 -6.36434 -76.062
rradius 31.3614
rwrist -8.33622
rhand -17.6331 -2.6798
rfingers 7.12502
rthumb 8.62437 -32.4836
lclavicle -4.55217e-014 -1.90833e-014
lhumerus -40.8065 -0.299898 88.9073
lradius 36.1277
lwrist 9.86892
lhand -11.5474 -2.1354
lfingers 7.12502
lthumb 14.4931 27.3384
rfemur -21.1844 -7.76744 20.315
rtibia 25.0633
rfoot -10.7459 -9.23194
rtoes -12.7095
lfemur 2.47014 -2.51752 -17.4037
ltibia 39.4667
lfoot 13.514 -1.81383
ltoes 22.7538
922
root 1.04166 18.2803 16.958 4.59946 6.98142 0.798949
lowerback 3.00841 -2.03356 -0.145558
upperback -0.627819 -2.63317 3.78604
thorax -2.14726 -1.28957 4.10891
lowerneck -18.2897 2.8383 6.16059
upperneck 20.9682 4.28179 -8.58692
head 10.0198 1.48555 -3.46233
rclavicle -1.77912e-014 -4.77083e-015
rhumerus -34.1649 -6.09496 -76.3328
rradius 31.3669
rwrist -8.44949
rhand -17.7393 -2.6569
rfingers 7.12502
rthumb 8.52191 -32.4649
lclavicle -1.77912e-014 -4.77083e-015
lhumerus -40.4023 -0.0741825 88.7749
lradius 36.3944
lwrist 10.0201
lhand -11.6069 -2.20909
lfingers 7.12502
lthumb 14.4358 27.2688
rfemur -20.7865 -7.54624 20.5437
rtibia 24.9109
rfoot -10.7681 -9.28552
rtoes -12.3766
lfemur 1.74019 -2.31886 -17.0663
ltibia 40.8441
lfoot 14.3712 -2.4148
ltoes 22.9661
923
root 1.02574 18.2888 17.0391 4.52723 6.77933 0.666168
lowerback 3.1807 -2.44786 -0.429262
upperback -0.406482 -3.1985 3.94736
thorax -1.95094 -1.57358 4.46176
lowerneck -18.8999 3.45512 7.01638
upperneck 20.9932 4.98093 -9.06174
head 10.2409 1.80707 -3.67668
rclavicle -2.18663e-015 2.06736e-014
rhumerus -33.1679 -5.15253 -77.0304
rradius 31.2619
rwrist -8.56089
rhand -17.8469 -2.61766
rfingers 7.12502
rthumb 8.41805 -32.4299
lclavicle -2.18663e-015 2.06736e-014
lhumerus -39.9241 0.934703 88.2365
lradius 36.7322
lwrist 10.1603
lhand -11.6613 -2.29218
lfingers 7.12502
lthumb 14.3834 27.1895
rfemur -20.3905 -7.28548 20.7588
rtibia 24.7569
rfoot -10.7491 -9.37538
rtoes -11.9542
lfemur 1.00419 -2.09387 -16.7463
ltibia 42.2001
lfoot 15.1729 -2.98551
ltoes 22.8654
924
root 1.0112 18.2971 17.1191 4.45489 6.56974 0.564183
lowerback 3.37409 -2.76379 -0.713446
upperback -0.144565 -3.6334 4.14795
thorax -1.72431 -1.79485 4.84981
lowerneck -19.7536 3.96508 7.53348
upperneck 21.1156 5.58628 -9.4137
head 10.5316 2.06267 -3.80104
rclavicle -8.44835e-015 -1.59028e-015
rhumerus -32.1391 -4.326 -77.5012
rradius 31.1952
rwrist -8.76976
rhand -17.9584 -2.60945
rfingers 7.12502
rthumb 8.31051 -32.426
lclavicle -8.44835e-015 -1.59028e-015
lhumerus -39.2904 1.82838 87.9268
lradius 37.0293
lwrist 10.2329
lhand -11.7089 -2.41324
lfingers 7.12502
lthumb 14.3375 27.0717
rfemur -19.9971 -7.00776 20.9381
rtibia 24.6054
rfoot -10.6857 -9.49678
rtoes -11.4355
lfemur 0.267009 -1.85764 -16.4728
ltibia 43.5262
lfoot 15.8873 -3.48071
ltoes 22.6003
925
root 0.997204 18.3051 17.199 4.37488 6.35199 0.468237
lowerback 3.55986 -3.00103 -0.93775
upperback 0.0697205 -3.96067 4.33004
thorax -1.55046 -1.96295 5.18211
lowerneck -20.4214 4.36864 7.88918
upperneck 21.1908 6.07376 -9.6818
head 10.7567 2.26405 -3.88206
rclavicle 1.07344e-014 -2.22639e-014
rhumerus -31.3053 -3.6274 -77.8365
rradius 31.174
rwrist -9.01096
rhand -18.0502 -2.55931
rfingers 7.12502
rthumb 8.22192 -32.3793
lclavicle 1.07344e-014 -2.22639e-014
lhumerus -38.7428 2.53108 87.7357
lradius 37.3356
lwrist 10.3133
lhand -11.7519 -2.5302
lfingers 7.12502
lthumb 14.2961 26.9577
rfemur -19.5965 -6.68027 21.11
rtibia 24.4561
rfoot -10.588 -9.66742
rtoes -10.8353
lfemur -0.461427 -1.6119 -16.215
ltibia 44.824
lfoot 16.4638 -3.88843
ltoes 22.3467
926
root 0.982816 18.3126 17.2781 4.29117 6.12113 0.367239
lowerback 3.65673 -3.03315 -0.911572
upperback 0.195843 -4.00384 4.39841
thorax -1.46742 -1.98795 5.24155
lowerneck -20.7347 4.46741 7.92717
upperneck 21.2364 6.1888 -9.7043
head 10.8471 2.30771 -3.87782
rclavicle -4.51241e-014 4.29375e-014
rhumerus -30.9024 -3.47793 -77.9378
rradius 31.2568
rwrist -9.24276
rhand -18.1104 -2.5222
rfingers 7.12502
rthumb 8.16374 -32.3445
lclavicle -4.51241e-014 4.29375e-014
lhumerus -38.3335 2.58229 87.7515
lradius 37.6237
lwrist 10.4027
lhand -11.7973 -2.61267
lfingers 7.12502
lthumb 14.2523 26.8783
rfemur -19.1937 -6.27828 21.2908
rtibia 24.3045
rfoot -10.4625 -9.8855
rtoes -10.1853
lfemur -1.18864 -1.35038 -15.9542
ltibia 46.0992
lfoot 16.8394 -4.18249
ltoes 22.2257
927
root 0.967536 18.3196 17.3562 4.20967 5.87939 0.254902
lowerback 3.63849 -2.79006 -0.534734
upperback 0.205773 -3.66451 4.31469
thorax -1.50901 -1.8191 4.92664
lowerneck -20.6147 4.15354 7.54269
upperneck 21.243 5.79883 -9.39909
head 10.7626 2.13785 -3.76334
rclavicle 1.68967e-014 -7.95139e-015
rhumerus -31.0652 -4.08818 -77.7278
rradius 31.4799
rwrist -9.44464
rhand -18.1462 -2.48754
rfingers 7.12502
rthumb 8.12926 -32.3112
lclavicle 1.68967e-014 -7.95139e-015
lhumerus -38.103 1.73162 88.0461
lradius 37.8916
lwrist 10.5307
lhand -11.8439 -2.63415
lfingers 7.12502
lthumb 14.2075 26.86
rfemur -18.7935 -5.79113 21.4899
rtibia 24.1471
rfoot -10.3136 -10.1421
rtoes -9.53843
lfemur -1.9269 -1.08032 -15.6816
ltibia 47.3594
lfoot 16.9548 -4.34075
ltoes 22.376
928
root 0.951985 18.326 17.4335 4.1265 5.64562 0.120953
lowerback 3.49486 -2.19413 0.265841
upperback 0.018338 -2.83482 4.09314
thorax -1.74503 -1.4037 4.2078
lowerneck -19.7785 3.30458 6.55811
upperneck 21.1429 4.77991 -8.7081
head 10.4201 1.69514 -3.50218
rclavicle -1.89839e-014 4.29375e-014
rhumerus -32.0374 -5.57736 -77.0008
rradius 31.8856
rwrist -9.6494
rhand -18.1502 -2.46533
rfingers 7.12502
rthumb 8.1254 -32.2891
lclavicle -1.89839e-014 4.29375e-014
lhumerus -38.2115 -0.211549 88.803
lradius 38.1367
lwrist 10.6894
lhand -11.8974 -2.61259
lfingers 7.12502
lthumb 14.1558 26.8851
rfemur -18.3896 -5.26535 21.7198
rtibia 23.9824
rfoot -10.153 -10.3982
rtoes -8.91042
lfemur -2.67537 -0.811009 -15.384
ltibia 48.61
lfoot 16.7669 -4.36471
ltoes 22.8172
929
root 0.93603 18.3317 17.5096 4.04703 5.42061 -0.0202122
lowerback 3.41675 -1.61116 0.995097
upperback -0.258756 -2.02071 3.93333
thorax -2.07457 -0.998631 3.59709
lowerneck -18.6977 2.47037 5.53581
upperneck 21.0229 3.80034 -8.05546
head 10.0504 1.2635 -3.23571
rclavicle -2.98177e-016 -7.95139e-015
rhumerus -33.1906 -6.8504 -76.1855
rradius 32.3387
rwrist -9.88425
rhand -18.1333 -2.45493
rfingers 7.12502
rthumb 8.14167 -32.2781
lclavicle -2.98177e-016 -7.95139e-015
lhumerus -38.5241 -2.055 89.6429
lradius 38.4126
lwrist 10.8356
lhand -11.9708 -2.60527
lfingers 7.12502
lthumb 14.0852 26.8974
rfemur -17.9908 -4.71987 21.9669
rtibia 23.8136
rfoot -9.97934 -10.6419
rtoes -8.3328
lfemur -3.44044 -0.540492 -15.0777
ltibia 49.848
lfoot 16.2648 -4.29407
ltoes 23.3144
